<svg width="285" height="39" viewBox="0 0 285 39" fill="none" xmlns="http://www.w3.org/2000/svg">
<g clip-path="url(#clip0_1_17)">
<g filter="url(#filter0_d_1_17)">
<path d="M23.7273 19.3636C23.7273 21.9242 23.2348 24.0947 22.25 25.875C21.2652 27.6553 19.9318 29.0076 18.25 29.9318C16.5758 30.8561 14.697 31.3182 12.6136 31.3182C10.5227 31.3182 8.64015 30.8523 6.96591 29.9205C5.29167 28.9886 3.96212 27.6364 2.97727 25.8636C2 24.0833 1.51136 21.9167 1.51136 19.3636C1.51136 16.803 2 14.6326 2.97727 12.8523C3.96212 11.072 5.29167 9.7197 6.96591 8.79545C8.64015 7.87121 10.5227 7.40909 12.6136 7.40909C14.697 7.40909 16.5758 7.87121 18.25 8.79545C19.9318 9.7197 21.2652 11.072 22.25 12.8523C23.2348 14.6326 23.7273 16.803 23.7273 19.3636ZM17.9773 19.3636C17.9773 17.8485 17.7614 16.5682 17.3295 15.5227C16.9053 14.4773 16.2917 13.6856 15.4886 13.1477C14.6932 12.6098 13.7348 12.3409 12.6136 12.3409C11.5 12.3409 10.5417 12.6098 9.73864 13.1477C8.93561 13.6856 8.31818 14.4773 7.88636 15.5227C7.46212 16.5682 7.25 17.8485 7.25 19.3636C7.25 20.8788 7.46212 22.1591 7.88636 23.2045C8.31818 24.25 8.93561 25.0417 9.73864 25.5795C10.5417 26.1174 11.5 26.3864 12.6136 26.3864C13.7348 26.3864 14.6932 26.1174 15.4886 25.5795C16.2917 25.0417 16.9053 24.25 17.3295 23.2045C17.7614 22.1591 17.9773 20.8788 17.9773 19.3636ZM30.2114 31V13.5455H35.4955V16.75H35.6886C36.0523 15.6894 36.6659 14.8523 37.5295 14.2386C38.3932 13.625 39.4235 13.3182 40.6205 13.3182C41.8326 13.3182 42.8705 13.6288 43.7341 14.25C44.5977 14.8712 45.147 15.7045 45.3818 16.75H45.5636C45.8894 15.7121 46.5258 14.8826 47.4727 14.2614C48.4197 13.6326 49.5371 13.3182 50.825 13.3182C52.4765 13.3182 53.8174 13.8485 54.8477 14.9091C55.878 15.9621 56.3932 17.4091 56.3932 19.25V31H50.8364V20.5227C50.8364 19.6515 50.6129 18.9886 50.1659 18.5341C49.7189 18.072 49.1394 17.8409 48.4273 17.8409C47.6621 17.8409 47.0599 18.0909 46.6205 18.5909C46.1886 19.0833 45.9727 19.7462 45.9727 20.5795V31H40.6318V20.4659C40.6318 19.6553 40.4121 19.0152 39.9727 18.5455C39.5333 18.0758 38.9538 17.8409 38.2341 17.8409C37.7492 17.8409 37.3212 17.9583 36.95 18.1932C36.5788 18.4205 36.2871 18.7462 36.075 19.1705C35.8705 19.5947 35.7682 20.0947 35.7682 20.6705V31H30.2114ZM67.9568 31.2955C66.8432 31.2955 65.8545 31.1098 64.9909 30.7386C64.1349 30.3598 63.4568 29.7917 62.9568 29.0341C62.4644 28.2689 62.2182 27.3106 62.2182 26.1591C62.2182 25.1894 62.3886 24.3712 62.7295 23.7045C63.0705 23.0379 63.5402 22.4962 64.1386 22.0795C64.7371 21.6629 65.4265 21.3485 66.2068 21.1364C66.9871 20.9167 67.8205 20.7689 68.7068 20.6932C69.6992 20.6023 70.4985 20.5076 71.1045 20.4091C71.7106 20.303 72.15 20.1553 72.4227 19.9659C72.703 19.7689 72.8432 19.4924 72.8432 19.1364V19.0795C72.8432 18.4962 72.6424 18.0455 72.2409 17.7273C71.8394 17.4091 71.2977 17.25 70.6159 17.25C69.8811 17.25 69.2902 17.4091 68.8432 17.7273C68.3962 18.0455 68.1121 18.4848 67.9909 19.0455L62.8659 18.8636C63.0174 17.803 63.4076 16.8561 64.0364 16.0227C64.6727 15.1818 65.5439 14.5227 66.65 14.0455C67.7636 13.5606 69.1008 13.3182 70.6614 13.3182C71.775 13.3182 72.8015 13.4508 73.7409 13.7159C74.6803 13.9735 75.4985 14.3523 76.1955 14.8523C76.8924 15.3447 77.4303 15.9508 77.8091 16.6705C78.1955 17.3902 78.3886 18.2121 78.3886 19.1364V31H73.1614V28.5682H73.025C72.7144 29.1591 72.3167 29.6591 71.8318 30.0682C71.3545 30.4773 70.7902 30.7841 70.1386 30.9886C69.4947 31.1932 68.7674 31.2955 67.9568 31.2955ZM69.6727 27.6591C70.2712 27.6591 70.8091 27.5379 71.2864 27.2955C71.7712 27.053 72.1576 26.7197 72.4455 26.2955C72.7333 25.8636 72.8773 25.3636 72.8773 24.7955V23.1364C72.7182 23.2197 72.525 23.2955 72.2977 23.3636C72.078 23.4318 71.8356 23.4962 71.5705 23.5568C71.3053 23.6174 71.0326 23.6705 70.7523 23.7159C70.472 23.7614 70.203 23.803 69.9455 23.8409C69.4227 23.9242 68.9758 24.053 68.6045 24.2273C68.2409 24.4015 67.9606 24.6288 67.7636 24.9091C67.5742 25.1818 67.4795 25.5076 67.4795 25.8864C67.4795 26.4621 67.6841 26.9015 68.0932 27.2045C68.5099 27.5076 69.0364 27.6591 69.6727 27.6591ZM90.5432 7.72727V31H84.9864V7.72727H90.5432ZM105.439 31.3295C103.613 31.3295 102.038 30.9697 100.712 30.25C99.3938 29.5227 98.3786 28.4886 97.6665 27.1477C96.9619 25.7992 96.6097 24.197 96.6097 22.3409C96.6097 20.5379 96.9657 18.9621 97.6778 17.6136C98.39 16.2576 99.3938 15.2045 100.689 14.4545C101.985 13.697 103.511 13.3182 105.269 13.3182C106.511 13.3182 107.648 13.5114 108.678 13.8977C109.708 14.2841 110.598 14.8561 111.348 15.6136C112.098 16.3712 112.682 17.3068 113.098 18.4205C113.515 19.5265 113.723 20.7955 113.723 22.2273V23.6136H98.5528V20.3864H108.553C108.545 19.7955 108.405 19.2689 108.132 18.8068C107.86 18.3447 107.485 17.9848 107.007 17.7273C106.538 17.4621 105.996 17.3295 105.382 17.3295C104.761 17.3295 104.204 17.4697 103.712 17.75C103.22 18.0227 102.829 18.3977 102.541 18.875C102.254 19.3447 102.102 19.8788 102.087 20.4773V23.7614C102.087 24.4735 102.227 25.0985 102.507 25.6364C102.788 26.1667 103.185 26.5795 103.701 26.875C104.216 27.1705 104.829 27.3182 105.541 27.3182C106.034 27.3182 106.481 27.25 106.882 27.1136C107.284 26.9773 107.629 26.7765 107.916 26.5114C108.204 26.2462 108.42 25.9205 108.564 25.5341L113.666 25.6818C113.454 26.8258 112.988 27.822 112.269 28.6705C111.557 29.5114 110.621 30.1667 109.462 30.6364C108.303 31.0985 106.962 31.3295 105.439 31.3295Z" fill="#222222"/>
<path d="M124.795 31H118.75L126.602 7.72727H134.091L141.943 31H135.898L130.432 13.5909H130.25L124.795 31ZM123.989 21.8409H136.625V26.1136H123.989V21.8409ZM147.649 31V13.5455H153.047V16.7273H153.228C153.547 15.5758 154.066 14.7197 154.785 14.1591C155.505 13.5909 156.342 13.3068 157.297 13.3068C157.554 13.3068 157.819 13.3258 158.092 13.3636C158.365 13.3939 158.619 13.4432 158.853 13.5114V18.3409C158.588 18.25 158.24 18.178 157.808 18.125C157.384 18.072 157.005 18.0455 156.672 18.0455C156.012 18.0455 155.418 18.1932 154.887 18.4886C154.365 18.7765 153.952 19.1818 153.649 19.7045C153.353 20.2197 153.206 20.8258 153.206 21.5227V31H147.649ZM175.579 23.4659V13.5455H181.124V31H175.829V27.75H175.647C175.261 28.8182 174.602 29.6667 173.67 30.2955C172.746 30.9167 171.628 31.2273 170.318 31.2273C169.128 31.2273 168.083 30.9545 167.181 30.4091C166.28 29.8636 165.579 29.1023 165.079 28.125C164.579 27.1402 164.325 25.9886 164.318 24.6705V13.5455H169.874V23.5795C169.882 24.5265 170.132 25.2727 170.624 25.8182C171.117 26.3636 171.787 26.6364 172.636 26.6364C173.189 26.6364 173.685 26.5152 174.124 26.2727C174.571 26.0227 174.924 25.6629 175.181 25.1932C175.446 24.7159 175.579 24.1402 175.579 23.4659ZM187.861 31V13.5455H193.145V16.75H193.339C193.702 15.6894 194.316 14.8523 195.18 14.2386C196.043 13.625 197.073 13.3182 198.27 13.3182C199.483 13.3182 200.52 13.6288 201.384 14.25C202.248 14.8712 202.797 15.7045 203.032 16.75H203.214C203.539 15.7121 204.176 14.8826 205.123 14.2614C206.07 13.6326 207.187 13.3182 208.475 13.3182C210.127 13.3182 211.467 13.8485 212.498 14.9091C213.528 15.9621 214.043 17.4091 214.043 19.25V31H208.486V20.5227C208.486 19.6515 208.263 18.9886 207.816 18.5341C207.369 18.072 206.789 17.8409 206.077 17.8409C205.312 17.8409 204.71 18.0909 204.27 18.5909C203.839 19.0833 203.623 19.7462 203.623 20.5795V31H198.282V20.4659C198.282 19.6553 198.062 19.0152 197.623 18.5455C197.183 18.0758 196.604 17.8409 195.884 17.8409C195.399 17.8409 194.971 17.9583 194.6 18.1932C194.229 18.4205 193.937 18.7462 193.725 19.1705C193.52 19.5947 193.418 20.0947 193.418 20.6705V31H187.861ZM228.834 31.3295C227.001 31.3295 225.425 30.9545 224.107 30.2045C222.796 29.447 221.785 28.3939 221.073 27.0455C220.368 25.6894 220.016 24.1174 220.016 22.3295C220.016 20.5341 220.368 18.9621 221.073 17.6136C221.785 16.2576 222.796 15.2045 224.107 14.4545C225.425 13.697 227.001 13.3182 228.834 13.3182C230.667 13.3182 232.239 13.697 233.55 14.4545C234.868 15.2045 235.88 16.2576 236.584 17.6136C237.296 18.9621 237.652 20.5341 237.652 22.3295C237.652 24.1174 237.296 25.6894 236.584 27.0455C235.88 28.3939 234.868 29.447 233.55 30.2045C232.239 30.9545 230.667 31.3295 228.834 31.3295ZM228.868 27.1364C229.535 27.1364 230.099 26.9318 230.561 26.5227C231.023 26.1136 231.376 25.5455 231.618 24.8182C231.868 24.0909 231.993 23.25 231.993 22.2955C231.993 21.3258 231.868 20.4773 231.618 19.75C231.376 19.0227 231.023 18.4545 230.561 18.0455C230.099 17.6364 229.535 17.4318 228.868 17.4318C228.179 17.4318 227.595 17.6364 227.118 18.0455C226.648 18.4545 226.289 19.0227 226.039 19.75C225.796 20.4773 225.675 21.3258 225.675 22.2955C225.675 23.25 225.796 24.0909 226.039 24.8182C226.289 25.5455 226.648 26.1136 227.118 26.5227C227.595 26.9318 228.179 27.1364 228.868 27.1364ZM249.256 21.0455V31H243.699V13.5455H248.983V16.75H249.176C249.563 15.6818 250.222 14.8447 251.153 14.2386C252.085 13.625 253.195 13.3182 254.483 13.3182C255.71 13.3182 256.775 13.5947 257.676 14.1477C258.585 14.6932 259.29 15.4583 259.79 16.4432C260.297 17.4205 260.547 18.5644 260.54 19.875V31H254.983V20.9659C254.991 19.9962 254.744 19.2386 254.244 18.6932C253.752 18.1477 253.066 17.875 252.188 17.875C251.604 17.875 251.089 18.0038 250.642 18.2614C250.203 18.5114 249.862 18.8712 249.619 19.3409C249.384 19.8106 249.263 20.3788 249.256 21.0455ZM272.101 31.2955C270.987 31.2955 269.998 31.1098 269.135 30.7386C268.279 30.3598 267.601 29.7917 267.101 29.0341C266.608 28.2689 266.362 27.3106 266.362 26.1591C266.362 25.1894 266.532 24.3712 266.873 23.7045C267.214 23.0379 267.684 22.4962 268.282 22.0795C268.881 21.6629 269.57 21.3485 270.351 21.1364C271.131 20.9167 271.964 20.7689 272.851 20.6932C273.843 20.6023 274.642 20.5076 275.248 20.4091C275.854 20.303 276.294 20.1553 276.566 19.9659C276.847 19.7689 276.987 19.4924 276.987 19.1364V19.0795C276.987 18.4962 276.786 18.0455 276.385 17.7273C275.983 17.4091 275.441 17.25 274.76 17.25C274.025 17.25 273.434 17.4091 272.987 17.7273C272.54 18.0455 272.256 18.4848 272.135 19.0455L267.01 18.8636C267.161 17.803 267.551 16.8561 268.18 16.0227C268.816 15.1818 269.688 14.5227 270.794 14.0455C271.907 13.5606 273.245 13.3182 274.805 13.3182C275.919 13.3182 276.945 13.4508 277.885 13.7159C278.824 13.9735 279.642 14.3523 280.339 14.8523C281.036 15.3447 281.574 15.9508 281.953 16.6705C282.339 17.3902 282.532 18.2121 282.532 19.1364V31H277.305V28.5682H277.169C276.858 29.1591 276.46 29.6591 275.976 30.0682C275.498 30.4773 274.934 30.7841 274.282 30.9886C273.638 31.1932 272.911 31.2955 272.101 31.2955ZM273.816 27.6591C274.415 27.6591 274.953 27.5379 275.43 27.2955C275.915 27.053 276.301 26.7197 276.589 26.2955C276.877 25.8636 277.021 25.3636 277.021 24.7955V23.1364C276.862 23.2197 276.669 23.2955 276.441 23.3636C276.222 23.4318 275.979 23.4962 275.714 23.5568C275.449 23.6174 275.176 23.6705 274.896 23.7159C274.616 23.7614 274.347 23.803 274.089 23.8409C273.566 23.9242 273.12 24.053 272.748 24.2273C272.385 24.4015 272.104 24.6288 271.907 24.9091C271.718 25.1818 271.623 25.5076 271.623 25.8864C271.623 26.4621 271.828 26.9015 272.237 27.2045C272.654 27.5076 273.18 27.6591 273.816 27.6591Z" fill="#E9B949"/>
</g>
</g>
<defs>
<filter id="filter0_d_1_17" x="-2.48863" y="7.40909" width="289.021" height="31.9205" filterUnits="userSpaceOnUse" color-interpolation-filters="sRGB">
<feFlood flood-opacity="0" result="BackgroundImageFix"/>
<feColorMatrix in="SourceAlpha" type="matrix" values="0 0 0 0 0 0 0 0 0 0 0 0 0 0 0 0 0 0 127 0" result="hardAlpha"/>
<feOffset dy="4"/>
<feGaussianBlur stdDeviation="2"/>
<feComposite in2="hardAlpha" operator="out"/>
<feColorMatrix type="matrix" values="0 0 0 0 0 0 0 0 0 0 0 0 0 0 0 0 0 0 0.25 0"/>
<feBlend mode="normal" in2="BackgroundImageFix" result="effect1_dropShadow_1_17"/>
<feBlend mode="normal" in="SourceGraphic" in2="effect1_dropShadow_1_17" result="shape"/>
</filter>
<clipPath id="clip0_1_17">
<rect width="285" height="39" fill="white"/>
</clipPath>
</defs>
</svg>
